<svg xmlns="http://www.w3.org/2000/svg" version="1.1" xmlns:xlink="http://www.w3.org/1999/xlink" xmlns:svgjs="http://svgjs.com/svgjs" width="512" height="512" x="0" y="0" viewBox="0 0 512 512" style="enable-background:new 0 0 512 512" xml:space="preserve" class=""><g><path xmlns="http://www.w3.org/2000/svg" d="m440.894531 464.753906h-417.039062c-13.175781 0-23.855469-10.683594-23.855469-23.859375v-417.039062c0-13.175781 10.683594-23.855469 23.855469-23.855469h417.039062c13.175781 0 23.859375 10.679688 23.859375 23.855469v417.039062c0 13.175781-10.683594 23.859375-23.859375 23.859375zm0 0" fill="#e7e7e7" data-original="#e7e7e7" class=""></path><path xmlns="http://www.w3.org/2000/svg" d="m464.753906 23.855469v417.042969c0 13.175781-10.679687 23.851562-23.863281 23.851562h-28.902344c13.183594 0 23.863281-10.675781 23.863281-23.851562v-417.042969c0-13.175781-10.679687-23.85156275-23.863281-23.85156275h28.902344c13.183594 0 23.863281 10.67578175 23.863281 23.85156275zm0 0" fill="#cecece" data-original="#cecece" class=""></path><path xmlns="http://www.w3.org/2000/svg" d="m464.753906 81.390625h-464.753906v-57.535156c0-13.175781 10.683594-23.855469 23.855469-23.855469h417.039062c13.175781 0 23.859375 10.679688 23.859375 23.855469zm0 0" fill="#64dcfc" data-original="#64dcfc"></path><path xmlns="http://www.w3.org/2000/svg" d="m464.753906 23.855469v57.535156h-28.902344v-57.535156c0-13.175781-10.679687-23.85156275-23.863281-23.85156275h28.902344c13.183594 0 23.863281 10.67578175 23.863281 23.85156275zm0 0" fill="#00d1fc" data-original="#00d1fc"></path><path xmlns="http://www.w3.org/2000/svg" d="m53.808594 40.695312c0 8.257813-6.695313 14.957032-14.957032 14.957032-8.257812 0-14.957031-6.699219-14.957031-14.957032 0-8.261718 6.699219-14.957031 14.957031-14.957031 8.261719 0 14.957032 6.695313 14.957032 14.957031zm0 0" fill="#ff5770" data-original="#ff5770" class=""></path><path xmlns="http://www.w3.org/2000/svg" d="m111.566406 40.695312c0 8.257813-6.695312 14.957032-14.953125 14.957032-8.261719 0-14.957031-6.699219-14.957031-14.957032 0-8.261718 6.695312-14.957031 14.957031-14.957031 8.257813 0 14.953125 6.695313 14.953125 14.957031zm0 0" fill="#ffd86e" data-original="#ffd86e"></path><path xmlns="http://www.w3.org/2000/svg" d="m169.328125 40.695312c0 8.257813-6.695313 14.957032-14.957031 14.957032-8.261719 0-14.957032-6.699219-14.957032-14.957032 0-8.261718 6.695313-14.957031 14.957032-14.957031 8.261718 0 14.957031 6.695313 14.957031 14.957031zm0 0" fill="#80e0dc" data-original="#80e0dc"></path><path xmlns="http://www.w3.org/2000/svg" d="m53.804688 40.699219c0 8.257812-6.691407 14.945312-14.949219 14.945312-3.996094 0-7.636719-1.566406-10.316407-4.132812 8.089844-.171875 14.605469-6.789063 14.605469-14.933594 0-4.265625-1.78125-8.101563-4.636719-10.824219.113282-.011718.234376-.011718.347657-.011718 8.257812 0 14.949219 6.691406 14.949219 14.957031zm0 0" fill="#ff435f" data-original="#ff435f"></path><path xmlns="http://www.w3.org/2000/svg" d="m111.566406 40.699219c0 8.257812-6.691406 14.945312-14.957031 14.945312-4 0-7.628906-1.566406-10.320313-4.132812 8.105469-.171875 14.617188-6.789063 14.617188-14.933594 0-4.265625-1.78125-8.101563-4.636719-10.824219.113281-.011718.226563-.011718.339844-.011718 8.265625 0 14.957031 6.691406 14.957031 14.957031zm0 0" fill="#ffb509" data-original="#ffb509"></path><path xmlns="http://www.w3.org/2000/svg" d="m169.328125 40.699219c0 8.257812-6.699219 14.945312-14.957031 14.945312-4 0-7.625-1.566406-10.316406-4.132812 8.101562-.171875 14.605468-6.789063 14.605468-14.933594 0-4.265625-1.785156-8.101563-4.640625-10.824219.113281-.011718.238281-.011718.351563-.011718 8.257812 0 14.957031 6.691406 14.957031 14.957031zm0 0" fill="#00a8b0" data-original="#00a8b0"></path><path xmlns="http://www.w3.org/2000/svg" d="m66.09375 166.84375h-18.160156c-2.25 0-4.035156-1.472656-4.035156-4.1875 0-.621094.15625-1.476562.621093-2.328125l17.925781-35.148437c1.164063-2.25 3.101563-3.105469 5.042969-3.105469 2.09375 0 6.050781 1.785156 6.050781 4.578125 0 .464844-.15625.933594-.386718 1.476562l-13.734375 27.542969h6.671875v-5.433594c0-2.558593 3.027344-3.644531 6.054687-3.644531 3.023438 0 6.050781 1.085938 6.050781 3.644531v5.433594h3.335938c2.484375 0 3.726562 2.792969 3.726562 5.585937 0 2.792969-1.863281 5.585938-3.726562 5.585938h-3.335938v8.226562c0 2.484376-3.027343 3.726563-6.050781 3.726563-3.027343 0-6.054687-1.242187-6.054687-3.726563v-8.226562zm0 0" fill="#ff5770" data-original="#ff5770" class=""></path><path xmlns="http://www.w3.org/2000/svg" d="m88.046875 160.945312v-20.558593c0-13.347657 8.300781-18.3125 19.007813-18.3125 10.707031 0 19.085937 4.964843 19.085937 18.3125v20.558593c0 13.347657-8.378906 18.3125-19.085937 18.3125-10.707032 0-19.007813-4.964843-19.007813-18.3125zm25.992187-20.558593c0-5.355469-2.640624-7.761719-6.984374-7.761719s-6.90625 2.40625-6.90625 7.761719v20.5625c0 5.351562 2.5625 7.757812 6.90625 7.757812s6.984374-2.40625 6.984374-7.757812zm-3.027343 10.316406c0 2.328125-1.472657 3.957031-3.878907 3.957031-2.484374 0-3.957031-1.628906-3.957031-3.957031 0-2.402344 1.472657-3.878906 3.957031-3.878906 2.40625 0 3.878907 1.476562 3.878907 3.878906zm0 0" fill="#ff5770" data-original="#ff5770" class=""></path><path xmlns="http://www.w3.org/2000/svg" d="m150.96875 166.84375h-18.15625c-2.25 0-4.035156-1.472656-4.035156-4.1875 0-.621094.152344-1.476562.621094-2.328125l17.921874-35.148437c1.164063-2.25 3.105469-3.105469 5.042969-3.105469 2.09375 0 6.050781 1.785156 6.050781 4.578125 0 .464844-.152343.933594-.386718 1.476562l-13.734375 27.542969h6.675781v-5.433594c0-2.558593 3.023438-3.644531 6.050781-3.644531 3.027344 0 6.050781 1.085938 6.050781 3.644531v5.433594h3.335938c2.484375 0 3.726562 2.792969 3.726562 5.585937 0 2.792969-1.863281 5.585938-3.726562 5.585938h-3.335938v8.226562c0 2.484376-3.023437 3.726563-6.050781 3.726563-3.027343 0-6.050781-1.242187-6.050781-3.726563zm0 0" fill="#ff5770" data-original="#ff5770" class=""></path><g xmlns="http://www.w3.org/2000/svg" fill="#5a5a5a"><path d="m72.976562 219.863281h-22.46875c-4.140624 0-7.5-3.355469-7.5-7.5 0-4.140625 3.359376-7.5 7.5-7.5h22.46875c4.140626 0 7.5 3.359375 7.5 7.5 0 4.144531-3.359374 7.5-7.5 7.5zm0 0" fill="#5a5a5a" data-original="#5a5a5a" class=""></path><path d="m235.214844 219.863281h-137.078125c-4.140625 0-7.5-3.355469-7.5-7.5 0-4.140625 3.359375-7.5 7.5-7.5h137.078125c4.144531 0 7.5 3.359375 7.5 7.5 0 4.144531-3.359375 7.5-7.5 7.5zm0 0" fill="#5a5a5a" data-original="#5a5a5a" class=""></path><path d="m214.394531 259.886719h-50.132812c-4.140625 0-7.5-3.355469-7.5-7.5 0-4.140625 3.359375-7.5 7.5-7.5h50.132812c4.140625 0 7.5 3.359375 7.5 7.5 0 4.144531-3.359375 7.5-7.5 7.5zm0 0" fill="#5a5a5a" data-original="#5a5a5a" class=""></path><path d="m138.046875 259.886719h-15.625c-4.144531 0-7.5-3.355469-7.5-7.5 0-4.140625 3.355469-7.5 7.5-7.5h15.625c4.140625 0 7.5 3.359375 7.5 7.5 0 4.144531-3.359375 7.5-7.5 7.5zm0 0" fill="#5a5a5a" data-original="#5a5a5a" class=""></path><path d="m97.269531 259.886719h-46.761719c-4.140624 0-7.5-3.355469-7.5-7.5 0-4.140625 3.359376-7.5 7.5-7.5h46.761719c4.140625 0 7.5 3.359375 7.5 7.5 0 4.144531-3.359375 7.5-7.5 7.5zm0 0" fill="#5a5a5a" data-original="#5a5a5a" class=""></path></g><path xmlns="http://www.w3.org/2000/svg" d="m511.113281 426.191406c0 47.386719-38.414062 85.804688-85.804687 85.804688-47.386719 0-85.800782-38.417969-85.800782-85.804688 0-47.386718 38.414063-85.804687 85.800782-85.804687 47.390625 0 85.804687 38.417969 85.804687 85.804687zm0 0" fill="#c9f0ff" data-original="#c9f0ff"></path><path xmlns="http://www.w3.org/2000/svg" d="m511.113281 426.191406c0 47.394532-38.414062 85.808594-85.808593 85.808594-18.179688 0-35.035157-5.660156-48.90625-15.308594 7.316406 2.042969 15.039062 3.125 23.003906 3.125 47.394531 0 85.8125-38.417968 85.8125-85.808594 0-29.210937-14.597656-55.011718-36.890625-70.492187 36.21875 10.050781 62.789062 43.261719 62.789062 82.675781zm0 0" fill="#9ae7fd" data-original="#9ae7fd" class=""></path><path xmlns="http://www.w3.org/2000/svg" d="m453.734375 426.191406 20.425781-20.421875c2.816406-2.820312 2.816406-7.386719 0-10.207031l-18.222656-18.21875c-2.816406-2.820312-7.382812-2.820312-10.203125 0l-20.425781 20.425781-20.421875-20.425781c-2.820313-2.820312-7.386719-2.820312-10.207031 0l-18.21875 18.21875c-2.820313 2.820312-2.820313 7.386719 0 10.207031l20.425781 20.421875-20.425781 20.425782c-2.820313 2.820312-2.820313 7.386718 0 10.203124l18.21875 18.222657c2.820312 2.816406 7.386718 2.816406 10.207031 0l20.421875-20.425781 20.425781 20.425781c2.820313 2.816406 7.386719 2.816406 10.203125 0l18.222656-18.222657c2.816406-2.816406 2.816406-7.382812 0-10.203124zm0 0" fill="#ff5770" data-original="#ff5770" class=""></path><path xmlns="http://www.w3.org/2000/svg" d="m474.164062 446.621094c2.8125 2.8125 2.8125 7.378906 0 10.203125l-18.222656 18.214843c-2.816406 2.824219-7.390625 2.824219-10.207031 0l-4.367187-4.371093 13.84375-13.851563c2.820312-2.816406 2.820312-7.382812 0-10.195312l-15.152344-15.15625c-2.910156-2.914063-2.910156-7.632813 0-10.542969l15.152344-15.160156c2.820312-2.8125 2.820312-7.378907 0-10.203125l-13.84375-13.84375 4.367187-4.371094c2.820313-2.816406 7.386719-2.816406 10.207031 0l18.222656 18.222656c2.8125 2.816406 2.8125 7.382813 0 10.207032l-20.429687 20.417968zm0 0" fill="#ff435f" data-original="#ff435f"></path></g></svg>