<svg xmlns="http://www.w3.org/2000/svg" version="1.1" xmlns:xlink="http://www.w3.org/1999/xlink" xmlns:svgjs="http://svgjs.com/svgjs" width="512" height="512" x="0" y="0" viewBox="0 0 32 32" style="enable-background:new 0 0 512 512" xml:space="preserve" class=""><g><g xmlns="http://www.w3.org/2000/svg" id="Instagram" fill="rgb(0,0,0)"><path d="m21 30h-10a9 9 0 0 1 -9-9v-10a9 9 0 0 1 9-9h10a9 9 0 0 1 9 9v10a9 9 0 0 1 -9 9zm-10-26a7 7 0 0 0 -7 7v10a7 7 0 0 0 7 7h10a7 7 0 0 0 7-7v-10a7 7 0 0 0 -7-7z" fill="#000000" data-original="#000000" class=""></path><path d="m16 23a6.89 6.89 0 0 1 -3-.66 1 1 0 0 1 .85-1.81 5 5 0 1 0 -2.21-2 1 1 0 1 1 -1.73 1 6.93 6.93 0 0 1 -.91-3.53 7 7 0 1 1 7 7z" fill="#000000" data-original="#000000" class=""></path><circle cx="23.5" cy="8.5" r="1.5" fill="#000000" data-original="#000000" class=""></circle></g></g></svg>