<svg xmlns="http://www.w3.org/2000/svg" version="1.1" xmlns:xlink="http://www.w3.org/1999/xlink" xmlns:svgjs="http://svgjs.com/svgjs" width="512" height="512" x="0" y="0" viewBox="0 0 6.3499999 6.3500002" style="enable-background:new 0 0 512 512" xml:space="preserve" class=""><g><g xmlns="http://www.w3.org/2000/svg" id="layer1" transform="translate(0 -290.65)"><path id="circle2017" d="m2.8944091 291.16099c-1.3119941 0-2.38073328 1.06874-2.38073328 2.38074 0 1.31199 1.06873918 2.3828 2.38073328 2.3828.5603925 0 1.0757805-.19638 1.4831137-.52245l.9916707.99115a.26516505.26516505 0 0 0 .375171-.37465l-.9916708-.99167c.3263411-.40796.5229654-.92414.5229654-1.48518 0-1.312-1.0692559-2.38074-2.38125-2.38074zm0 .52917c1.0260113 0 1.8515666.82556 1.8515666 1.85157s-.8255553 1.85363-1.8515666 1.85363-1.8515666-.82762-1.8515666-1.85363.8255553-1.85157 1.8515666-1.85157z" font-variant-ligatures="normal" font-variant-position="normal" font-variant-caps="normal" font-variant-numeric="normal" font-variant-alternates="normal" font-feature-settings="normal" text-indent="0" text-align="start" text-decoration-line="none" text-decoration-style="solid" text-decoration-color="rgb(0,0,0)" text-transform="none" text-orientation="mixed" white-space="normal" shape-padding="0" isolation="auto" mix-blend-mode="normal" solid-color="rgb(0,0,0)" solid-opacity="1" vector-effect="none" paint-order="stroke fill markers" fill="#000000" data-original="#000000" class=""></path></g></g></svg> 